<svg xmlns="http://www.w3.org/2000/svg" viewBox="0 0 96 96" width="96" height="96">
  <defs>
    <clipPath id="c"><circle cx="48" cy="48" r="48"/></clipPath>
    <linearGradient id="g" x1="0" y1="0" x2="0" y2="1">
      <stop offset="0%" stop-color="#ffffff"/><stop offset="100%" stop-color="#eef0f6"/>
    </linearGradient>
  </defs>
  <g clip-path="url(#c)">
    <rect width="96" height="96" fill="url(#g)"/>
    <path d="M48 92c-19 0-30 8-34 18h68c-4-10-15-18-34-18z" fill="#E9A02E"/>
    <ellipse cx="48" cy="86" rx="17" ry="20" fill="#E9A02E"/>
    <path d="M40 62h16v14a8 8 0 0 1-16 0z" fill="#E5A79E"/>
    <ellipse cx="48" cy="47" rx="19" ry="23" fill="#F3CFCB"/>
    <path d="M29 45c0-14 8-22 19-22s19 8 19 22c0-6-4-9-9-10-4-1-7 1-13 0-6-1-9 2-11 5-3 3-5 3-5 5z" fill="#43242B"/>
    <ellipse cx="41" cy="47" rx="2.1" ry="2.6" fill="#43242B"/>
    <ellipse cx="55" cy="47" rx="2.1" ry="2.6" fill="#43242B"/>
    <path d="M43 57c2 2 8 2 10 0" stroke="#43242B" stroke-width="1.8" stroke-linecap="round" fill="none" opacity=".75"/>
  </g>
</svg>
